<?xml version="1.0" encoding="utf-8"?>
<!-- Generator: Adobe Illustrator 18.0.0, SVG Export Plug-In . SVG Version: 6.00 Build 0)  -->
<!DOCTYPE svg PUBLIC "-//W3C//DTD SVG 1.1//EN" "http://www.w3.org/Graphics/SVG/1.1/DTD/svg11.dtd">
<svg version="1.1" id="圖層_1" xmlns="http://www.w3.org/2000/svg" xmlns:xlink="http://www.w3.org/1999/xlink" x="0px" y="0px"
	 viewBox="0 0 100 100" enable-background="new 0 0 100 100" xml:space="preserve">
<g>
	<path fill="#FFFFFF" d="M31,55.4c-4.3,3.2-11.7,8.8-16.8,8.7C7.2,64.1,3.9,60,3.9,54.1c0-7.4,6.1-19.9,19.2-31.3
		C34.2,12.6,50.6,6.2,60,9.4c4.3,1.9,5.4,5,5.1,8c-0.3,2.5-1.7,5.4-4.8,8c-4.8,4.1-9.1,3.6-10.3,2.1c-0.8-1-0.8-2.8-0.7-2.1
		c0.4,2.7,4.2,2.5,5.3,1.7c0,0,9.8-5.7,4.9-12.2C55.8,10,40.5,14.8,28,27.2C17.1,37.9,14.5,50.9,14.9,52.5
		c0.5,8.1,16.7-4.2,18.2-5.3l19.1-13.6c0.7-0.4,7.3-5.8,7.9-2.1c0.5,3.2-14.6,27-25.5,35.7l29.2-22.8l-3.1,7.3
		c-6.8,1.9-5.6,9.3-5.6,9.3c-0.5,0.6-2.4,1.6-3.1,2.1l-15.3,9c-3.5,4.8-16.4,18.8-22.2,18.8c-2.1,0-3.1-1.7-3.2-3.6
		c-0.3-5.7,7.3-13.4,15.7-17.4c2-1,17.2-23.5,22.1-29.2L31,55.4z"/>
	<path fill="#FFFFFF" d="M91.7,45.8c0,0-5.8,7.7-21.9,16.5c0.9-0.5,6.3-5.7,8.1-7.8c2.1-2.3,4.7-4.9,7.2-9.8
		c1.3-2.5,1.5-7.2-2.3-8.2c-2.8-0.8-7.2,2.2-6.7,0.9c0.5-1.5,6.6-6.8,6.6-6.8c-0.3,0.1-14.8,10.8-15,10.9l-3.6,7.9
		c-0.7,0.7,11.6-9.2,11.6-9.2c6.2-3.1,9.6-0.5,6.1,4.5C78.4,49.7,68,57,67.1,57.7c0.2-2.6-3.4-5.6-6.6-3.8c0,0-3.7,2.1-3.3,6.6
		c0.7,5.6,5.4,7.7,8.8,7.7c12.6,0,25.1-17.7,30-24.8L91.7,45.8z"/>
</g>
<circle fill="#FFFFFF" cx="73.2" cy="30.3" r="3.2"/>
</svg>
